name Walk7.mot
datacolumns 19
datarows 30
range 2.73600000 2.76500000
endheader

                time	   L_ground_force_vx	   L_ground_force_vy	   L_ground_force_vz	   L_ground_force_px	   L_ground_force_py	   L_ground_force_pz	   R_ground_force_vx	   R_ground_force_vy	   R_ground_force_vz	   R_ground_force_px	   R_ground_force_py	   R_ground_force_pz	   L_ground_torque_x	   L_ground_torque_y	   L_ground_torque_z	   R_ground_torque_x	   R_ground_torque_y	   R_ground_torque_z	
          2.73600000	         26.47550305	        727.15162624	         28.33408991	         -0.18609625	          0.00000000	         -0.02204258	          0.00072605	          0.13493280	          0.00535974	          0.00023244	          0.00000000	          0.00004561	          0.00000000	         -0.26069028	          0.00000000	          0.00000000	         -0.00057353	          0.00000000	
          2.73700000	         26.98023489	        728.58611578	         28.51759195	         -0.18570032	          0.00000000	         -0.02204101	         -0.00004073	          0.14548989	          0.00588165	          0.00024509	          0.00000000	          0.00004801	          0.00000000	         -0.27050807	          0.00000000	          0.00000000	         -0.00047877	          0.00000000	
          2.73800000	         27.48904716	        730.03125629	         28.69873052	         -0.18530820	          0.00000000	         -0.02203804	         -0.00087860	          0.15642715	          0.00642778	          0.00025789	          0.00000000	          0.00005044	          0.00000000	         -0.28003487	          0.00000000	          0.00000000	         -0.00037323	          0.00000000	
          2.73900000	         28.00189335	        731.48670543	         28.87723936	         -0.18491990	          0.00000000	         -0.02203366	         -0.00179069	          0.16773472	          0.00699811	          0.00027083	          0.00000000	          0.00005288	          0.00000000	         -0.28928652	          0.00000000	          0.00000000	         -0.00025634	          0.00000000	
          2.74000000	         28.51872947	        732.95211991	         29.05284402	         -0.18453543	          0.00000000	         -0.02202787	         -0.00278015	          0.17940032	          0.00759254	          0.00028384	          0.00000000	          0.00005533	          0.00000000	         -0.29828207	          0.00000000	          0.00000000	         -0.00012753	          0.00000000	
          2.74100000	         29.03951180	        734.42715441	         29.22526119	         -0.18415480	          0.00000000	         -0.02202067	         -0.00385007	          0.19140904	          0.00821084	          0.00029690	          0.00000000	          0.00005778	          0.00000000	         -0.30704363	          0.00000000	          0.00000000	          0.00001378	          0.00000000	
          2.74200000	         29.56419551	        735.91146133	         29.39419885	         -0.18377802	          0.00000000	         -0.02201205	         -0.00500351	          0.20374316	          0.00885269	          0.00030994	          0.00000000	          0.00006022	          0.00000000	         -0.31559614	          0.00000000	          0.00000000	          0.00016816	          0.00000000	
          2.74300000	         30.09273466	        737.40469166	         29.55935763	         -0.18340509	          0.00000000	         -0.02200201	         -0.00624347	          0.21638200	          0.00951763	          0.00032291	          0.00000000	          0.00006264	          0.00000000	         -0.32396678	          0.00000000	          0.00000000	          0.00033619	          0.00000000	
          2.74400000	         30.62508409	        738.90649658	         29.72043365	         -0.18303601	          0.00000000	         -0.02199055	         -0.00757287	          0.22930166	          0.01020505	          0.00033575	          0.00000000	          0.00006503	          0.00000000	         -0.33218438	          0.00000000	          0.00000000	          0.00051845	          0.00000000	
          2.74500000	         31.16120275	        740.41652923	         29.87712293	         -0.18267078	          0.00000000	         -0.02197767	         -0.00899453	          0.24247488	          0.01091420	          0.00034840	          0.00000000	          0.00006736	          0.00000000	         -0.34027866	          0.00000000	          0.00000000	          0.00071550	          0.00000000	
          2.74600000	         31.70105802	        741.93444588	         30.02912670	         -0.18230939	          0.00000000	         -0.02196336	         -0.01051115	          0.25587083	          0.01164417	          0.00036079	          0.00000000	          0.00006964	          0.00000000	         -0.34827954	          0.00000000	          0.00000000	          0.00092791	          0.00000000	
          2.74700000	         32.24462984	        743.45990618	         30.17615701	         -0.18195185	          0.00000000	         -0.02194764	         -0.01212529	          0.26945488	          0.01239389	          0.00037284	          0.00000000	          0.00007184	          0.00000000	         -0.35621650	          0.00000000	          0.00000000	          0.00115623	          0.00000000	
          2.74800000	         32.79191428	        744.99257217	         30.31794181	         -0.18159814	          0.00000000	         -0.02193051	         -0.01383935	          0.28318839	          0.01316209	          0.00038446	          0.00000000	          0.00007394	          0.00000000	         -0.36411806	          0.00000000	          0.00000000	          0.00140099	          0.00000000	
          2.74900000	         33.34292594	        746.53210708	         30.45422891	         -0.18124825	          0.00000000	         -0.02191197	         -0.01565554	          0.29702856	          0.01394731	          0.00039558	          0.00000000	          0.00007594	          0.00000000	         -0.37201146	          0.00000000	          0.00000000	          0.00166270	          0.00000000	
          2.75000000	         33.89769903	        748.07817424	         30.58478865	         -0.18090215	          0.00000000	         -0.02189203	         -0.01757584	          0.31092812	          0.01474790	          0.00040610	          0.00000000	          0.00007781	          0.00000000	         -0.37992253	          0.00000000	          0.00000000	          0.00194187	          0.00000000	
          2.75100000	         34.45628715	        749.63043698	         30.70941533	         -0.18055982	          0.00000000	         -0.02187071	         -0.01960199	          0.32483519	          0.01556198	          0.00041593	          0.00000000	          0.00007953	          0.00000000	         -0.38787577	          0.00000000	          0.00000000	          0.00223896	          0.00000000	
          2.75200000	         35.01876199	        751.18855934	         30.82792779	         -0.18022123	          0.00000000	         -0.02184801	         -0.02173547	          0.33869304	          0.01638744	          0.00042494	          0.00000000	          0.00008109	          0.00000000	         -0.39589449	          0.00000000	          0.00000000	          0.00255442	          0.00000000	
          2.75300000	         35.58521111	        752.75220753	         30.94016949	         -0.17988636	          0.00000000	         -0.02182396	         -0.02397744	          0.35243985	          0.01722192	          0.00043304	          0.00000000	          0.00008245	          0.00000000	         -0.40400081	          0.00000000	          0.00000000	          0.00288863	          0.00000000	
          2.75400000	         36.15573553	        754.32105202	         31.04600819	         -0.17955519	          0.00000000	         -0.02179856	         -0.02632872	          0.36600855	          0.01806283	          0.00044010	          0.00000000	          0.00008360	          0.00000000	         -0.41221554	          0.00000000	          0.00000000	          0.00324197	          0.00000000	
          2.75500000	         36.73044724	        755.89477001	         31.14533535	         -0.17922767	          0.00000000	         -0.02177184	         -0.02878975	          0.37932653	          0.01890728	          0.00044600	          0.00000000	          0.00008451	          0.00000000	         -0.42055776	          0.00000000	          0.00000000	          0.00361476	          0.00000000	
          2.75600000	         37.30946712	        757.47304789	         31.23806530	         -0.17890380	          0.00000000	         -0.02174381	         -0.03136058	          0.39231551	          0.01975211	          0.00045061	          0.00000000	          0.00008515	          0.00000000	         -0.42904426	          0.00000000	          0.00000000	          0.00400726	          0.00000000	
          2.75700000	         37.89292339	        759.05558309	         31.32413425	         -0.17858354	          0.00000000	         -0.02171450	         -0.03404079	          0.40489126	          0.02059387	          0.00045378	          0.00000000	          0.00008551	          0.00000000	         -0.43768908	          0.00000000	          0.00000000	          0.00441968	          0.00000000	
          2.75800000	         38.48095091	        760.64208485	         31.40349943	         -0.17826688	          0.00000000	         -0.02168394	         -0.03682947	          0.41696344	          0.02142881	          0.00045538	          0.00000000	          0.00008554	          0.00000000	         -0.44650316	          0.00000000	          0.00000000	          0.00485218	          0.00000000	
          2.75900000	         39.07369110	        762.23227368	         31.47613812	         -0.17795379	          0.00000000	         -0.02165213	         -0.03972519	          0.42843542	          0.02225283	          0.00045524	          0.00000000	          0.00008523	          0.00000000	         -0.45549448	          0.00000000	          0.00000000	          0.00530483	          0.00000000	
          2.76000000	         39.67129235	        763.82587959	         31.54204685	         -0.17764424	          0.00000000	         -0.02161912	         -0.04272592	          0.43920402	          0.02306152	          0.00045321	          0.00000000	          0.00008453	          0.00000000	         -0.46466829	          0.00000000	          0.00000000	          0.00577763	          0.00000000	
          2.76100000	         40.27391022	        765.42263933	         31.60124050	         -0.17733821	          0.00000000	         -0.02158492	         -0.04582905	          0.44915943	          0.02385012	          0.00044912	          0.00000000	          0.00008342	          0.00000000	         -0.47402774	          0.00000000	          0.00000000	          0.00627050	          0.00000000	
          2.76200000	         40.88170720	        767.02229359	         31.65375156	         -0.17703567	          0.00000000	         -0.02154957	         -0.04903127	          0.45818496	          0.02461349	          0.00044280	          0.00000000	          0.00008186	          0.00000000	         -0.48357432	          0.00000000	          0.00000000	          0.00678328	          0.00000000	
          2.76300000	         41.49485145	        768.62458485	         31.69962950	         -0.17673659	          0.00000000	         -0.02151309	         -0.05232856	          0.46615692	          0.02534616	          0.00043406	          0.00000000	          0.00007982	          0.00000000	         -0.49330838	          0.00000000	          0.00000000	          0.00731569	          0.00000000	
          2.76400000	         42.11351487	        770.22925635	         31.73894044	         -0.17644093	          0.00000000	         -0.02147552	         -0.05571614	          0.47294449	          0.02604223	          0.00042271	          0.00000000	          0.00007726	          0.00000000	         -0.50322935	          0.00000000	          0.00000000	          0.00786736	          0.00000000	
          2.76500000	         42.73787060	        771.83605194	         31.77176691	         -0.17614869	          0.00000000	         -0.02143689	         -0.05918840	          0.47840958	          0.02669543	          0.00040856	          0.00000000	          0.00007414	          0.00000000	         -0.51333578	          0.00000000	          0.00000000	          0.00843781	          0.00000000	
